<svg version="1.1" id="Capa_1" xmlns="http://www.w3.org/2000/svg" xmlns:xlink="http://www.w3.org/1999/xlink" x="0px" y="0px"
	 width="782.818px" height="782.818px" viewBox="0 0 782.818 782.818" style="enable-background:new 0 0 782.818 782.818;"
	 xml:space="preserve">
<g>
	<path d="M28.949,97.5v508.629v88.945c0,48.391,39.357,87.744,87.744,87.744h19.501h535.42h39h40.63v-39h-40.63v-97.49h40.63
		l2.626-40.199V0H121.761C29.139,0,28.949,97.5,28.949,97.5z M264.238,66.179c225.293,0,408.584,183.282,408.584,408.59h-58.496
		c0-193.047-157.055-350.101-350.088-350.101V66.179z M264.238,162.72c172.06,0,312.04,139.987,312.04,312.049h-58.5
		c0-139.812-113.739-253.549-253.54-253.549V162.72L264.238,162.72z M264.238,274.862c110.228,0,199.896,89.669,199.896,199.908
		h-58.495c0-77.979-63.432-141.409-141.397-141.409L264.238,274.862L264.238,274.862z M264.238,383.785
		c50.166,0,90.977,40.812,90.977,90.984c0,50.156-40.811,90.967-90.977,90.967c-50.168,0-90.977-40.811-90.977-90.967
		C173.262,424.598,214.07,383.785,264.238,383.785z M562.12,646.328h109.494v97.492h-535.42h-19.501
		c-26.877,0-48.744-21.877-48.744-48.744c0-26.873,21.867-48.748,48.744-48.748h19.501H562.12z"/>
</g>
<g>
</g>
<g>
</g>
<g>
</g>
<g>
</g>
<g>
</g>
<g>
</g>
<g>
</g>
<g>
</g>
<g>
</g>
<g>
</g>
<g>
</g>
<g>
</g>
<g>
</g>
<g>
</g>
<g>
</g>
</svg>
